<?xml version="1.0" encoding="iso-8859-1"?>
<!-- Generator: Adobe Illustrator 19.0.0, SVG Export Plug-In . SVG Version: 6.00 Build 0)  -->
<svg version="1.1" id="Layer_1" xmlns="http://www.w3.org/2000/svg" xmlns:xlink="http://www.w3.org/1999/xlink" x="0px" y="0px"
	 viewBox="0 0 392.533 392.533" style="enable-background:new 0 0 392.533 392.533;" xml:space="preserve">
<g>
	<path style="fill:#FFFFFF;" d="M203.055,316.242c-2.004,1.616-4.396,2.392-6.788,2.392c-2.392,0-4.784-0.776-6.788-2.392
		l-37.43-29.931L46.61,370.739h299.249l-105.374-84.428L203.055,316.242z"/>
	<path style="fill:#FFFFFF;" d="M370.36,362.4c0.259-0.84,0.323-1.681,0.323-2.521V182.036l-112.808,90.311L370.36,362.4z"/>
	<path style="fill:#FFFFFF;" d="M21.786,182.036v177.778c0,0.905,0.129,1.745,0.323,2.521l112.485-90.052L21.786,182.036z"/>
	<polygon style="fill:#FFFFFF;" points="364.154,159.345 196.267,24.881 28.38,159.345 196.267,293.745 	"/>
</g>
<polygon style="fill:#FFC10D;" points="63.224,159.345 196.267,52.743 329.309,159.345 196.267,265.818 "/>
<path style="fill:#194F82;" d="M388.461,150.812L388.461,150.812L203.055,2.384c-4.008-3.168-9.632-3.168-13.576,0L4.073,150.812
	l0,0C1.616,152.816,0,155.855,0,159.281v200.533c0,18.036,14.675,32.711,32.711,32.711h327.111
	c18.036,0,32.711-14.675,32.711-32.711V159.345C392.533,155.855,390.917,152.816,388.461,150.812z M196.267,24.881l167.887,134.465
	l-167.887,134.4L28.38,159.281L196.267,24.881z M22.174,362.4c-0.259-0.84-0.323-1.681-0.323-2.521V182.036l112.808,90.311
	L22.174,362.4z M46.61,370.739l105.503-84.428l37.43,29.931c2.004,1.616,4.396,2.392,6.788,2.392c2.392,0,4.784-0.776,6.788-2.392
	l37.43-29.931l105.374,84.428H46.61z M370.747,359.814c0,0.905-0.129,1.745-0.323,2.521l-112.485-90.117l112.808-90.311V359.814z"/>
<g>
	<path style="fill:#56ACE0;" d="M240.485,286.311l-37.43,29.931c-2.004,1.616-4.396,2.392-6.788,2.392
		c-2.392,0-4.784-0.776-6.788-2.392l-37.43-29.931l-78.222,62.578h244.816L240.485,286.311z"/>
	<polygon style="fill:#56ACE0;" points="257.939,272.283 348.962,345.139 348.962,199.491 	"/>
	<path style="fill:#56ACE0;" d="M70.788,240.671c6.012,0,10.925,4.848,10.925,10.925c0,6.012-4.848,10.925-10.925,10.925H43.572
		v22.174h11.055c6.012,0,10.925,4.848,10.925,10.925c0,6.012-4.848,10.925-10.925,10.925H43.572v38.788l91.022-72.857
		l-91.022-72.986v41.18H70.788z"/>
</g>
<path style="fill:#194F82;" d="M221.091,189.083c-7.434,7.111-15.903,10.667-25.6,10.667c-24.372,0-43.766-19.071-43.766-45.382
	c0-22.497,17.067-47.386,46.287-47.386c27.216,0,42.861,21.527,42.861,46.933c0,6.271-1.034,11.442-2.909,15.515
	c-1.939,4.073-4.267,6.206-6.788,6.206c-2.844,0-4.331-2.392-4.331-7.176v-45.899h-18.036v5.883c0,0-6.853-7.564-16.162-7.628
	c-20.881-0.065-29.543,19.717-29.543,33.616c0,18.036,13.059,32.582,30.125,32.582c8.145,0,14.739-3.426,20.105-10.214
	c1.164,3.297,5.947,11.636,16.226,11.636c7.111,0,12.8-3.168,17.131-9.568c4.331-6.4,6.594-14.804,6.594-25.406
	c0-31.935-23.661-57.277-56.242-57.277c-34.78,0-58.117,28.962-58.117,58.182c0,36.525,29.414,56.178,56.436,56.178
	c14.61,0,27.669-7.887,31.547-11.184L221.091,189.083z M195.362,170.982c-11.055,0-13.705-12.671-13.705-17.325
	s2.457-16.485,13.511-16.485c4.073,0,13.834,3.491,13.834,16.679C209.002,158.634,206.61,170.982,195.362,170.982z"/>
<g>
</g>
<g>
</g>
<g>
</g>
<g>
</g>
<g>
</g>
<g>
</g>
<g>
</g>
<g>
</g>
<g>
</g>
<g>
</g>
<g>
</g>
<g>
</g>
<g>
</g>
<g>
</g>
<g>
</g>
</svg>
