<?xml version="1.0" encoding="iso-8859-1"?>
<!-- Generator: Adobe Illustrator 19.0.0, SVG Export Plug-In . SVG Version: 6.00 Build 0)  -->
<svg version="1.1" id="Layer_1" xmlns="http://www.w3.org/2000/svg" xmlns:xlink="http://www.w3.org/1999/xlink" x="0px" y="0px"
	 viewBox="0 0 473.654 473.654" style="enable-background:new 0 0 473.654 473.654;" xml:space="preserve">
<circle style="fill:#A2D4DE;" cx="236.827" cy="236.827" r="236.827"/>
<path id="SVGCleanerId_0" style="fill:#E35656;" d="M193.673,217.482c0,3.478-2.835,6.312-6.316,6.312l0,0
	c-3.482,0-6.312-2.835-6.312-6.312v-68.73c0-3.493,2.831-6.316,6.312-6.316l0,0c3.485,0,6.316,2.827,6.316,6.316V217.482z"/>
<path id="SVGCleanerId_1" style="fill:#E35656;" d="M294.877,217.482c0,3.478-2.827,6.312-6.312,6.312l0,0
	c-3.485,0-6.312-2.835-6.312-6.312v-68.73c0-3.493,2.831-6.316,6.312-6.316l0,0c3.485,0,6.312,2.827,6.312,6.316V217.482z"/>
<path id="SVGCleanerId_2" style="fill:#D84544;" d="M304.106,205.161c0,0-24.475-5.041-65.749-5.041
	c-41.277,0-68.591,5.041-68.591,5.041c-61.535,56.408-63.584,129.535-63.584,129.535c0,15.119,5.516,17.12,12.303,17.12h236.898
	c6.795,0,12.303-2.001,12.303-17.12C367.686,334.696,365.637,257.466,304.106,205.161z"/>
<path id="SVGCleanerId_3" style="fill:#CC3432;" d="M367.686,345.66c0,6.791-5.508,12.307-12.303,12.307H118.485
	c-6.787,0-12.303-5.516-12.303-12.307v-17.438c0-6.799,7.558-15.381,14.356-15.381h232.796c6.791,0,14.352,8.582,14.352,15.381
	L367.686,345.66L367.686,345.66z"/>
<path style="fill:#E35656;" d="M290.741,259.261c0,25.403-22.389,44.976-51.27,44.976c-28.888,0-51.277-19.573-51.277-44.976
	s22.389-43.947,51.277-43.947C268.352,215.313,290.741,233.858,290.741,259.261z"/>
<path id="SVGCleanerId_4" style="fill:#E17F7F;" d="M250.529,227.381c0,4.413-4.832,7.801-11.058,7.801
	c-6.23,0-11.065-3.388-11.065-7.801c0-4.405,4.835-7.618,11.065-7.618C245.697,219.76,250.529,222.976,250.529,227.381z"/>
<path style="fill:#D54D4C;" d="M248.738,226.648c0,2.865-4.042,5.063-9.267,5.063c-5.224,0-9.27-2.199-9.27-5.063
	c0-2.872,4.05-4.959,9.27-4.959S248.738,223.78,248.738,226.648z"/>
<path id="SVGCleanerId_5" style="fill:#E17F7F;" d="M224.636,238.925c0,4.405-4.832,7.801-11.058,7.801
	c-6.234,0-11.069-3.396-11.069-7.801c0-4.413,4.835-7.632,11.069-7.632C219.805,231.293,224.636,234.516,224.636,238.925z"/>
<path style="fill:#D54D4C;" d="M222.845,238.181c0,2.865-4.05,5.067-9.267,5.067c-5.224,0-9.27-2.206-9.27-5.067
	c0-2.861,4.046-4.951,9.27-4.951C218.795,233.23,222.845,235.32,222.845,238.181z"/>
<path id="SVGCleanerId_6" style="fill:#E17F7F;" d="M276.684,238.925c0,4.405-4.832,7.801-11.065,7.801
	c-6.234,0-11.062-3.396-11.062-7.801c0-4.413,4.828-7.632,11.062-7.632C271.852,231.293,276.684,234.516,276.684,238.925z"/>
<path style="fill:#D54D4C;" d="M274.889,238.181c0,2.865-4.043,5.067-9.27,5.067c-5.22,0-9.27-2.206-9.27-5.067
	c0-2.861,4.05-4.951,9.27-4.951C270.846,233.23,274.889,235.32,274.889,238.181z"/>
<path id="SVGCleanerId_7" style="fill:#E17F7F;" d="M224.636,279.944c0,4.405-4.832,7.793-11.058,7.793
	c-6.234,0-11.069-3.388-11.069-7.793c0-4.42,4.835-7.632,11.069-7.632C219.805,272.312,224.636,275.528,224.636,279.944z"/>
<path style="fill:#D54D4C;" d="M222.845,279.2c0,2.865-4.05,5.067-9.267,5.067c-5.224,0-9.27-2.206-9.27-5.067
	c0-2.872,4.046-4.959,9.27-4.959C218.795,274.242,222.845,276.328,222.845,279.2z"/>
<path id="SVGCleanerId_8" style="fill:#E17F7F;" d="M276.684,279.944c0,4.405-4.832,7.793-11.065,7.793
	c-6.234,0-11.062-3.388-11.062-7.793c0-4.42,4.828-7.632,11.062-7.632C271.852,272.312,276.684,275.528,276.684,279.944z"/>
<path style="fill:#D54D4C;" d="M274.889,279.2c0,2.865-4.043,5.067-9.27,5.067c-5.22,0-9.27-2.206-9.27-5.067
	c0-2.872,4.05-4.959,9.27-4.959C270.846,274.242,274.889,276.328,274.889,279.2z"/>
<path id="SVGCleanerId_9" style="fill:#E17F7F;" d="M250.529,291.99c0,4.413-4.832,7.801-11.058,7.801
	c-6.23,0-11.065-3.388-11.065-7.801c0-4.405,4.835-7.625,11.065-7.625C245.697,284.365,250.529,287.584,250.529,291.99z"/>
<path style="fill:#D54D4C;" d="M248.738,291.253c0,2.865-4.042,5.067-9.267,5.067c-5.224,0-9.27-2.206-9.27-5.067
	c0-2.861,4.05-4.959,9.27-4.959S248.738,288.388,248.738,291.253z"/>
<path id="SVGCleanerId_10" style="fill:#E17F7F;" d="M284.376,259.691c0,4.405-4.832,7.801-11.065,7.801
	c-6.226,0-11.062-3.396-11.062-7.801c0-4.405,4.835-7.625,11.062-7.625C279.544,252.066,284.376,255.286,284.376,259.691z"/>
<path style="fill:#D54D4C;" d="M282.581,258.947c0,2.872-4.046,5.067-9.27,5.067c-5.22,0-9.267-2.199-9.267-5.067
	c0-2.857,4.042-4.959,9.267-4.959C278.535,253.988,282.581,256.09,282.581,258.947z"/>
<path id="SVGCleanerId_11" style="fill:#E17F7F;" d="M216.435,259.691c0,4.405-4.832,7.801-11.069,7.801
	c-6.23,0-11.058-3.396-11.058-7.801c0-4.405,4.828-7.625,11.058-7.625C211.604,252.066,216.435,255.286,216.435,259.691z"/>
<path style="fill:#D54D4C;" d="M214.637,258.947c0,2.872-4.046,5.067-9.27,5.067c-5.217,0-9.263-2.199-9.263-5.067
	c0-2.857,4.046-4.959,9.263-4.959C210.59,253.988,214.637,256.09,214.637,258.947z"/>
<g>
	<path id="SVGCleanerId_0_1_" style="fill:#E35656;" d="M193.673,217.482c0,3.478-2.835,6.312-6.316,6.312l0,0
		c-3.482,0-6.312-2.835-6.312-6.312v-68.73c0-3.493,2.831-6.316,6.312-6.316l0,0c3.485,0,6.316,2.827,6.316,6.316V217.482z"/>
</g>
<g>
	<path id="SVGCleanerId_1_1_" style="fill:#E35656;" d="M294.877,217.482c0,3.478-2.827,6.312-6.312,6.312l0,0
		c-3.485,0-6.312-2.835-6.312-6.312v-68.73c0-3.493,2.831-6.316,6.312-6.316l0,0c3.485,0,6.312,2.827,6.312,6.316V217.482z"/>
</g>
<g>
	<path id="SVGCleanerId_2_1_" style="fill:#D84544;" d="M304.106,205.161c0,0-24.475-5.041-65.749-5.041
		c-41.277,0-68.591,5.041-68.591,5.041c-61.535,56.408-63.584,129.535-63.584,129.535c0,15.119,5.516,17.12,12.303,17.12h236.898
		c6.795,0,12.303-2.001,12.303-17.12C367.686,334.696,365.637,257.466,304.106,205.161z"/>
</g>
<g>
	<path id="SVGCleanerId_3_1_" style="fill:#CC3432;" d="M367.686,345.66c0,6.791-5.508,12.307-12.303,12.307H118.485
		c-6.787,0-12.303-5.516-12.303-12.307v-17.438c0-6.799,7.558-15.381,14.356-15.381h232.796c6.791,0,14.352,8.582,14.352,15.381
		L367.686,345.66L367.686,345.66z"/>
</g>
<path style="fill:#EEA7A7;" d="M290.741,259.261c0,25.403-22.389,44.976-51.27,44.976c-28.888,0-51.277-19.573-51.277-44.976
	s22.389-43.947,51.277-43.947C268.352,215.313,290.741,233.858,290.741,259.261z"/>
<g>
	<path id="SVGCleanerId_4_1_" style="fill:#E17F7F;" d="M250.529,227.381c0,4.413-4.832,7.801-11.058,7.801
		c-6.23,0-11.065-3.388-11.065-7.801c0-4.405,4.835-7.618,11.065-7.618C245.697,219.76,250.529,222.976,250.529,227.381z"/>
</g>
<path style="fill:#CC3432;" d="M248.738,226.648c0,2.865-4.042,5.063-9.267,5.063c-5.224,0-9.27-2.199-9.27-5.063
	c0-2.872,4.05-4.959,9.27-4.959S248.738,223.78,248.738,226.648z"/>
<g>
	<path id="SVGCleanerId_5_1_" style="fill:#E17F7F;" d="M224.636,238.925c0,4.405-4.832,7.801-11.058,7.801
		c-6.234,0-11.069-3.396-11.069-7.801c0-4.413,4.835-7.632,11.069-7.632C219.805,231.293,224.636,234.516,224.636,238.925z"/>
</g>
<path style="fill:#CC3432;" d="M222.845,238.181c0,2.865-4.05,5.067-9.267,5.067c-5.224,0-9.27-2.206-9.27-5.067
	c0-2.861,4.046-4.951,9.27-4.951C218.795,233.23,222.845,235.32,222.845,238.181z"/>
<g>
	<path id="SVGCleanerId_6_1_" style="fill:#E17F7F;" d="M276.684,238.925c0,4.405-4.832,7.801-11.065,7.801
		c-6.234,0-11.062-3.396-11.062-7.801c0-4.413,4.828-7.632,11.062-7.632C271.852,231.293,276.684,234.516,276.684,238.925z"/>
</g>
<path style="fill:#CC3432;" d="M274.889,238.181c0,2.865-4.043,5.067-9.27,5.067c-5.22,0-9.27-2.206-9.27-5.067
	c0-2.861,4.05-4.951,9.27-4.951C270.846,233.23,274.889,235.32,274.889,238.181z"/>
<g>
	<path id="SVGCleanerId_7_1_" style="fill:#E17F7F;" d="M224.636,279.944c0,4.405-4.832,7.793-11.058,7.793
		c-6.234,0-11.069-3.388-11.069-7.793c0-4.42,4.835-7.632,11.069-7.632C219.805,272.312,224.636,275.528,224.636,279.944z"/>
</g>
<path style="fill:#CC3432;" d="M222.845,279.2c0,2.865-4.05,5.067-9.267,5.067c-5.224,0-9.27-2.206-9.27-5.067
	c0-2.872,4.046-4.959,9.27-4.959C218.795,274.242,222.845,276.328,222.845,279.2z"/>
<g>
	<path id="SVGCleanerId_8_1_" style="fill:#E17F7F;" d="M276.684,279.944c0,4.405-4.832,7.793-11.065,7.793
		c-6.234,0-11.062-3.388-11.062-7.793c0-4.42,4.828-7.632,11.062-7.632C271.852,272.312,276.684,275.528,276.684,279.944z"/>
</g>
<path style="fill:#CC3432;" d="M274.889,279.2c0,2.865-4.043,5.067-9.27,5.067c-5.22,0-9.27-2.206-9.27-5.067
	c0-2.872,4.05-4.959,9.27-4.959C270.846,274.242,274.889,276.328,274.889,279.2z"/>
<g>
	<path id="SVGCleanerId_9_1_" style="fill:#E17F7F;" d="M250.529,291.99c0,4.413-4.832,7.801-11.058,7.801
		c-6.23,0-11.065-3.388-11.065-7.801c0-4.405,4.835-7.625,11.065-7.625C245.697,284.365,250.529,287.584,250.529,291.99z"/>
</g>
<path style="fill:#CC3432;" d="M248.738,291.253c0,2.865-4.042,5.067-9.267,5.067c-5.224,0-9.27-2.206-9.27-5.067
	c0-2.861,4.05-4.959,9.27-4.959S248.738,288.388,248.738,291.253z"/>
<g>
	<path id="SVGCleanerId_10_1_" style="fill:#E17F7F;" d="M284.376,259.691c0,4.405-4.832,7.801-11.065,7.801
		c-6.226,0-11.062-3.396-11.062-7.801c0-4.405,4.835-7.625,11.062-7.625C279.544,252.066,284.376,255.286,284.376,259.691z"/>
</g>
<path style="fill:#CC3432;" d="M282.581,258.947c0,2.872-4.046,5.067-9.27,5.067c-5.22,0-9.267-2.199-9.267-5.067
	c0-2.857,4.042-4.959,9.267-4.959C278.535,253.988,282.581,256.09,282.581,258.947z"/>
<g>
	<path id="SVGCleanerId_11_1_" style="fill:#E17F7F;" d="M216.435,259.691c0,4.405-4.832,7.801-11.069,7.801
		c-6.23,0-11.058-3.396-11.058-7.801c0-4.405,4.828-7.625,11.058-7.625C211.604,252.066,216.435,255.286,216.435,259.691z"/>
</g>
<g>
	<path style="fill:#CC3432;" d="M214.637,258.947c0,2.872-4.046,5.067-9.27,5.067c-5.217,0-9.263-2.199-9.263-5.067
		c0-2.857,4.046-4.959,9.263-4.959C210.59,253.988,214.637,256.09,214.637,258.947z"/>
	<path style="fill:#CC3432;" d="M101.567,249.022c19.711-0.381,35.96-4.469,39.131-25.642c3.19-21.312-5.576-32.669-5.576-32.669
		s14.764-18.129,103.04-22.811c88.318,4.674,103.074,22.811,103.074,22.811s-8.758,11.357-5.572,32.669
		c3.16,21.173,19.427,24.73,39.131,25.65c63.027,2.965,43.731-52.743,43.731-52.743c-14.521-57.043-126.14-69.773-178.823-67.78
		c-52.679-1.986-167.353,10.759-181.863,67.78C57.836,196.286,35.9,250.293,101.567,249.022z"/>
</g>
<g>
	<path style="fill:#BA2E2D;" d="M335.66,223.376c3.16,21.173,19.427,24.73,39.131,25.65c32.811,1.541,43.312-12.812,45.84-26.936
		c0,0-20.714,12.535-39.494,12.535C362.353,234.625,335.66,223.376,335.66,223.376z"/>
	<path style="fill:#BA2E2D;" d="M140.743,223.335c-3.194,21.435-19.655,25.029-39.591,25.964
		c-33.204,1.563-43.828-12.965-46.382-27.258c0,0,20.957,12.681,39.965,12.681C113.728,234.718,140.743,223.335,140.743,223.335z"/>
</g>
<g>
</g>
<g>
</g>
<g>
</g>
<g>
</g>
<g>
</g>
<g>
</g>
<g>
</g>
<g>
</g>
<g>
</g>
<g>
</g>
<g>
</g>
<g>
</g>
<g>
</g>
<g>
</g>
<g>
</g>
</svg>
